<svg width="30" height="26" viewBox="0 0 30 26" fill="none" xmlns="http://www.w3.org/2000/svg">
<path d="M29.4844 17.9968C29.4844 16.8714 28.7627 15.9119 27.7579 15.5555V6.62374L29.5405 5.91125L14.7511 0L0 5.91125L6.98226 8.70927V12.8173C6.98226 14.0837 7.87009 15.225 9.48217 16.0311C10.9041 16.7421 12.7754 17.1336 14.7515 17.1336C16.7276 17.1336 18.599 16.7421 20.0208 16.0311C21.6329 15.225 22.5207 14.0837 22.5207 12.8173V8.71701L26.0313 7.31384V15.5555C25.0265 15.9119 24.3048 16.8714 24.3048 17.9968C24.3048 19.0264 24.9087 19.9174 25.7809 20.3344L24.3491 24.6298L25.987 25.1758L26.8946 22.4532L27.8022 25.1758L29.4401 24.6298L28.0083 20.3344C28.8804 19.9172 29.4844 19.0263 29.4844 17.9968ZM20.7943 12.8172C20.7943 14.0397 18.2101 15.407 14.7516 15.407C11.293 15.407 8.70881 14.0397 8.70881 12.8172V9.40111L14.7511 11.8225L20.7943 9.40699V12.8172H20.7943ZM14.752 9.96289L4.64136 5.91125L14.752 1.8596L24.8886 5.91125L14.752 9.96289ZM26.8946 18.86C26.4186 18.86 26.0314 18.4728 26.0314 17.9968C26.0314 17.5208 26.4186 17.1335 26.8946 17.1335C27.3706 17.1335 27.7579 17.5208 27.7579 17.9968C27.7579 18.4728 27.3706 18.86 26.8946 18.86Z" fill="#8C8985"/>
</svg>
