<svg width="207" height="39" viewBox="0 0 207 39" fill="none" xmlns="http://www.w3.org/2000/svg">
<path d="M100.936 32.0285V22.6162H92.7877V32.0285H94.333V23.8805H99.3904V32.0285H100.936Z" fill="#1D1D1B"/>
<path d="M134.09 16.0142L129.314 11.2378L134.09 6.46143H132.124L127.909 10.5354V6.46143H126.504V16.0142H127.909V11.9402L132.124 16.0142H134.09Z" fill="#1D1D1B"/>
<path d="M143.784 22.6162H142.238V32.169H143.784V22.6162Z" fill="#1D1D1B"/>
<path d="M151.088 4.21398C150.808 4.49495 150.386 4.63543 149.965 4.63543C149.543 4.63543 149.122 4.49495 148.841 4.21398C148.56 3.93302 148.419 3.65206 148.279 3.37109H147.015C147.015 3.65206 147.155 4.0735 147.295 4.35446C147.436 4.63543 147.717 4.91639 147.857 5.19735C148.138 5.47832 148.419 5.61881 148.7 5.7593C148.981 5.89978 149.403 5.89976 149.824 5.89976C150.246 5.89976 150.527 5.89978 150.948 5.7593C151.229 5.61881 151.65 5.47832 151.791 5.19735C152.072 4.91639 152.212 4.77591 152.353 4.35446C152.493 4.0735 152.634 3.79254 152.634 3.37109H151.369C151.65 3.65206 151.369 3.93302 151.088 4.21398Z" fill="#1D1D1B"/>
<path d="M107.258 11.2378L102.903 16.0142H104.87L108.663 11.9402V16.0142H110.208V11.9402L114.001 16.0142H115.968L111.472 11.2378L115.968 6.46143H114.001L110.208 10.6759V6.46143H108.663V10.6759L104.729 6.46143H102.903L107.398 11.2378H107.258Z" fill="#1D1D1B"/>
<path d="M103.886 30.9058C104.308 31.3273 104.87 31.7487 105.432 32.0297C105.993 32.3107 106.696 32.4512 107.398 32.4512C108.101 32.4512 108.803 32.3107 109.365 32.0297C109.927 31.7487 110.489 31.4678 110.91 30.9058C111.332 30.4844 111.753 29.9225 111.894 29.3605C112.175 28.7986 112.315 28.0962 112.315 27.3938C112.315 26.6914 112.175 25.989 111.894 25.427C111.613 24.8651 111.332 24.3032 110.91 23.8817C110.489 23.4603 109.927 23.0388 109.365 22.7579C108.803 22.4769 108.101 22.3364 107.398 22.3364C106.696 22.3364 105.993 22.4769 105.432 22.7579C104.87 23.0388 104.308 23.3198 103.886 23.8817C103.465 24.3032 103.043 24.8651 102.903 25.427C102.622 25.989 102.481 26.6914 102.481 27.3938C102.481 28.0962 102.622 28.7986 102.903 29.3605C103.043 29.9225 103.465 30.3439 103.886 30.9058ZM104.308 25.989C104.448 25.5675 104.729 25.1461 105.01 24.8651C105.291 24.5841 105.713 24.3032 106.134 24.1627C106.555 24.0222 106.977 23.8817 107.539 23.8817C107.96 23.8817 108.522 24.0222 108.944 24.1627C109.365 24.3032 109.787 24.5841 110.067 24.8651C110.348 25.1461 110.629 25.5675 110.77 25.989C110.91 26.4104 111.051 26.8319 111.051 27.3938C111.051 27.9557 110.91 28.3772 110.77 28.7986C110.629 29.2201 110.348 29.6415 110.067 29.9225C109.787 30.2034 109.365 30.4844 108.944 30.6249C108.522 30.7654 108.101 30.9058 107.539 30.9058C107.117 30.9058 106.555 30.7654 106.134 30.6249C105.713 30.4844 105.291 30.2034 105.01 29.9225C104.729 29.6415 104.448 29.2201 104.308 28.7986C104.167 28.3772 104.027 27.9557 104.027 27.3938C104.027 26.8319 104.027 26.4104 104.308 25.989Z" fill="#1D1D1B"/>
<path d="M103.043 11.2385C103.043 10.5361 102.903 9.8337 102.622 9.27178C102.341 8.70985 102.06 8.14791 101.638 7.72646C101.217 7.30502 100.655 6.88357 100.093 6.6026C99.531 6.32164 98.8286 6.18115 98.1262 6.18115C97.4238 6.18115 96.7214 6.32164 96.1595 6.6026C95.5975 6.88357 95.0356 7.16454 94.6142 7.72646C94.1927 8.14791 93.7713 8.70985 93.6308 9.27178C93.3498 9.8337 93.2094 10.5361 93.2094 11.2385C93.2094 11.9409 93.3498 12.6433 93.6308 13.2053C93.9118 13.7672 94.1927 14.3291 94.6142 14.7506C95.0356 15.172 95.5975 15.5935 96.1595 15.8744C96.7214 16.1554 97.4238 16.2959 98.1262 16.2959C98.8286 16.2959 99.531 16.1554 100.093 15.8744C100.655 15.5935 101.217 15.3125 101.638 14.7506C102.06 14.3291 102.481 13.7672 102.622 13.2053C102.903 12.6433 103.043 11.9409 103.043 11.2385ZM101.357 12.6433C101.217 13.0648 100.936 13.4862 100.655 13.7672C100.374 14.0482 99.9525 14.3291 99.531 14.4696C99.1096 14.6101 98.6882 14.7506 98.1262 14.7506C97.7048 14.7506 97.1428 14.6101 96.7214 14.4696C96.3 14.3291 95.8785 14.0482 95.5975 13.7672C95.3166 13.4862 95.0356 13.0648 94.8951 12.6433C94.7546 12.2219 94.6142 11.8004 94.6142 11.2385C94.6142 10.6766 94.7546 10.2551 94.8951 9.83369C95.0356 9.41225 95.3166 8.9908 95.5975 8.70983C95.8785 8.42887 96.3 8.14791 96.7214 8.00742C97.1428 7.86694 97.5643 7.72646 98.1262 7.72646C98.5477 7.72646 99.1096 7.86694 99.531 8.00742C99.9525 8.14791 100.374 8.42887 100.655 8.70983C100.936 8.9908 101.217 9.41225 101.357 9.83369C101.498 10.2551 101.638 10.6766 101.638 11.2385C101.498 11.8004 101.498 12.2219 101.357 12.6433Z" fill="#1D1D1B"/>
<path d="M131.28 32.0285V22.6162H129.876V26.6902H124.537V22.6162H123.132V32.0285H124.537V27.9545H129.876V32.0285H131.28Z" fill="#1D1D1B"/>
<path d="M123.273 7.0237C122.852 6.74274 122.571 6.60226 122.149 6.46178C121.728 6.3213 121.307 6.32129 120.745 6.32129C120.042 6.32129 119.34 6.46178 118.778 6.74274C118.216 7.0237 117.654 7.30466 117.233 7.72611C116.811 8.14756 116.39 8.70949 116.249 9.27142C115.968 9.83335 115.828 10.5358 115.828 11.2382C115.828 11.9406 115.968 12.643 116.249 13.2049C116.53 13.7668 116.811 14.3288 117.233 14.7502C117.654 15.1717 118.216 15.5931 118.778 15.7336C119.34 16.0145 120.042 16.155 120.745 16.155C121.728 16.155 122.571 15.8741 123.273 15.4526C123.976 15.0312 124.538 14.3288 124.959 13.6264H123.273C122.992 14.0478 122.571 14.3288 122.149 14.4693C121.728 14.7502 121.166 14.7502 120.604 14.7502C120.183 14.7502 119.621 14.6097 119.199 14.4693C118.778 14.3288 118.356 14.0478 118.075 13.7668C117.795 13.4859 117.514 13.0644 117.373 12.643C117.233 12.2215 117.092 11.6596 117.092 11.2382C117.092 10.6762 117.233 10.2548 117.373 9.83334C117.514 9.41189 117.795 8.99044 118.075 8.70948C118.356 8.42852 118.778 8.14755 119.199 8.00707C119.621 7.86659 120.042 7.72611 120.604 7.72611C121.166 7.72611 121.728 7.8666 122.149 8.14756C122.571 8.42852 122.992 8.70948 123.273 8.99044H124.959C124.819 8.56899 124.538 8.28803 124.257 8.00707C123.835 7.58562 123.554 7.30466 123.273 7.0237Z" fill="#1D1D1B"/>
<path d="M207 33.9964V30.9058H205.736V22.7578H198.852V27.1128C198.852 27.5342 198.852 27.8152 198.852 28.2366C198.852 28.6581 198.712 28.939 198.712 29.3605C198.571 29.6414 198.571 30.0629 198.431 30.3439C198.29 30.6248 198.15 30.9058 197.869 31.0463H197.026V34.1369H198.571V32.3106H205.736V34.1369H207V33.9964ZM204.19 30.7653H199.554C199.695 30.4843 199.835 30.2034 199.976 29.9224C200.116 29.6414 200.116 29.22 200.257 28.939C200.257 28.6581 200.397 28.2366 200.397 27.9556C200.397 27.6747 200.397 27.2532 200.397 26.9723V24.0222H204.19V30.7653Z" fill="#1D1D1B"/>
<path d="M185.365 23.3186C185.084 23.0377 184.804 22.8972 184.382 22.7567C183.961 22.6162 183.539 22.6162 182.977 22.6162H178.622V32.169H182.977C183.539 32.169 183.961 32.169 184.382 32.0285C184.804 31.888 185.084 31.7475 185.365 31.4666C185.646 31.1856 185.787 30.9046 185.927 30.6237C186.068 30.3427 186.068 29.9213 186.068 29.6403C186.068 29.2189 185.927 28.7974 185.787 28.5165C185.646 28.095 185.365 27.814 184.804 27.5331C185.225 27.2521 185.506 26.9711 185.787 26.5497C185.927 26.1282 186.068 25.8473 186.068 25.4259C186.068 25.0044 186.068 24.7234 185.927 24.4425C185.787 23.8805 185.646 23.5996 185.365 23.3186ZM184.101 30.3427C183.82 30.6237 183.399 30.6237 182.837 30.6237H180.027V27.9545H182.837C183.399 27.9545 183.82 28.095 184.101 28.2355C184.382 28.5165 184.523 28.7974 184.523 29.2189C184.523 29.7808 184.382 30.2022 184.101 30.3427ZM184.101 26.2687C183.82 26.5497 183.399 26.5497 182.837 26.5497H180.027V23.8805H182.837C183.399 23.8805 183.82 24.021 184.101 24.1615C184.382 24.4425 184.523 24.7234 184.523 25.1449C184.523 25.7068 184.382 26.1282 184.101 26.2687Z" fill="#1D1D1B"/>
<path d="M196.745 25.427C196.464 24.8651 196.183 24.3032 195.762 23.8817C195.34 23.4603 194.778 23.0388 194.216 22.7579C193.654 22.4769 192.952 22.3364 192.25 22.3364C191.547 22.3364 190.845 22.4769 190.283 22.7579C189.721 23.0388 189.159 23.3198 188.737 23.8817C188.316 24.3032 187.895 24.8651 187.754 25.427C187.473 25.989 187.333 26.6914 187.333 27.3938C187.333 28.0962 187.473 28.7986 187.754 29.3605C188.035 29.9225 188.316 30.4844 188.737 30.9058C189.159 31.3273 189.721 31.7487 190.283 32.0297C190.845 32.3107 191.547 32.4512 192.25 32.4512C192.952 32.4512 193.654 32.3107 194.216 32.0297C194.778 31.7487 195.34 31.4678 195.762 30.9058C196.183 30.4844 196.604 29.9225 196.745 29.3605C197.026 28.7986 197.166 28.0962 197.166 27.3938C197.026 26.6914 196.885 25.989 196.745 25.427ZM195.34 28.7986C195.2 29.2201 194.919 29.6415 194.638 29.9225C194.357 30.2034 193.935 30.4844 193.514 30.6249C193.092 30.7654 192.671 30.9058 192.109 30.9058C191.688 30.9058 191.126 30.7654 190.704 30.6249C190.283 30.4844 189.861 30.2034 189.58 29.9225C189.299 29.6415 189.018 29.2201 188.878 28.7986C188.737 28.3772 188.597 27.9557 188.597 27.3938C188.597 26.8319 188.737 26.4104 188.878 25.989C189.018 25.5675 189.299 25.1461 189.58 24.8651C189.861 24.5841 190.283 24.3032 190.704 24.1627C191.126 24.0222 191.547 23.8817 192.109 23.8817C192.53 23.8817 193.092 24.0222 193.514 24.1627C193.935 24.3032 194.357 24.5841 194.638 24.8651C194.919 25.1461 195.2 25.5675 195.34 25.989C195.481 26.4104 195.621 26.8319 195.621 27.3938C195.621 27.8152 195.481 28.3772 195.34 28.7986Z" fill="#1D1D1B"/>
<path d="M160.36 31.4674C160.641 31.7484 161.063 31.8889 161.484 32.0293C161.905 32.1698 162.467 32.3103 163.17 32.3103C163.732 32.3103 164.294 32.1698 164.715 32.0293C165.137 31.8889 165.558 31.7484 165.979 31.4674C166.26 31.1864 166.541 30.9055 166.822 30.484C166.963 30.0626 167.103 29.7816 167.103 29.3602C167.103 28.9387 166.963 28.6578 166.822 28.2363C166.682 27.9554 166.401 27.5339 165.979 27.3934C166.401 27.1125 166.682 26.8315 166.822 26.5505C166.963 26.2696 167.103 25.8481 167.103 25.4267C167.103 25.0052 166.963 24.5838 166.822 24.1623C166.682 23.7409 166.401 23.4599 165.979 23.179C165.698 22.898 165.277 22.7575 164.715 22.6171C164.294 22.4766 163.732 22.4766 163.17 22.4766C162.608 22.4766 162.046 22.617 161.625 22.7575C161.203 22.898 160.782 23.179 160.501 23.3195C160.22 23.6004 159.939 23.8814 159.658 24.1623C159.517 24.4433 159.236 24.7243 159.236 25.0052H160.782C160.922 24.5838 161.344 24.3028 161.765 24.0219C162.186 23.7409 162.748 23.7409 163.31 23.7409C163.591 23.7409 163.872 23.7409 164.153 23.8814C164.434 23.8814 164.715 24.0219 164.856 24.1623C164.996 24.3028 165.277 24.4433 165.277 24.5838C165.418 24.7243 165.418 25.0052 165.418 25.2862C165.418 25.7076 165.277 25.9886 164.996 26.2696C164.715 26.5505 164.294 26.691 163.732 26.691H161.484V28.0958H163.732C164.294 28.0958 164.715 28.2363 164.996 28.3768C165.277 28.6578 165.418 28.9387 165.418 29.3602C165.418 29.6411 165.418 29.7816 165.277 30.0626C165.137 30.2031 164.996 30.484 164.715 30.484C164.575 30.6245 164.294 30.765 164.013 30.765C163.732 30.765 163.451 30.9055 163.17 30.9055C162.608 30.9055 162.046 30.765 161.625 30.6245C161.203 30.3436 160.922 30.0626 160.641 29.6412H159.096C159.236 29.9221 159.377 30.3436 159.517 30.6245C159.798 30.9055 160.079 31.1864 160.36 31.4674Z" fill="#1D1D1B"/>
<path d="M154.178 32.0285V22.6162H152.633L147.295 29.9213V22.6162H145.89V32.0285H147.435L152.633 24.7234V32.0285H154.178Z" fill="#1D1D1B"/>
<path d="M145.89 6.46143V16.0142H147.435L152.633 8.70913V16.0142H154.178V6.46143H152.633L147.295 13.907V6.46143H145.89Z" fill="#1D1D1B"/>
<path d="M171.739 22.6162L167.524 32.169H169.07L170.053 30.0617H174.97L175.953 32.169H177.499L173.284 22.6162H171.739ZM170.615 28.5165L172.441 24.302L174.267 28.5165H170.615Z" fill="#1D1D1B"/>
<path d="M152.915 19.3853H151.65C151.65 19.8067 151.369 20.0877 151.088 20.2281C150.807 20.5091 150.386 20.6496 149.965 20.6496C149.543 20.6496 149.122 20.5091 148.841 20.2281C148.56 19.9472 148.419 19.6662 148.279 19.3853H147.014C147.014 19.8067 147.155 20.0877 147.295 20.3686C147.436 20.6496 147.717 20.9306 147.857 21.2115C148.138 21.4925 148.419 21.633 148.7 21.7734C148.981 21.9139 149.403 21.9139 149.824 21.9139C150.245 21.9139 150.526 21.9139 150.948 21.7734C151.229 21.633 151.65 21.4925 151.791 21.2115C152.072 20.9306 152.212 20.7901 152.353 20.3686C152.774 20.0877 152.774 19.6662 152.915 19.3853Z" fill="#1D1D1B"/>
<path d="M82.3928 9.27178C82.1118 8.70985 81.8308 8.14791 81.4094 7.72646C80.9879 7.30502 80.426 6.88357 79.8641 6.6026C79.3022 6.32164 78.5998 6.18115 77.8973 6.18115C77.1949 6.18115 76.4925 6.32164 75.9306 6.6026C75.3687 6.88357 74.8067 7.16454 74.3853 7.72646C73.9638 8.14791 73.5424 8.70985 73.4019 9.27178C73.1209 9.8337 72.9805 10.5361 72.9805 11.2385C72.9805 11.9409 73.1209 12.6433 73.4019 13.2053C73.6829 13.7672 73.9638 14.3291 74.3853 14.7506C74.8067 15.172 75.3687 15.5935 75.9306 15.8744C76.4925 16.1554 77.1949 16.2959 77.8973 16.2959C78.5998 16.2959 79.3022 16.1554 79.8641 15.8744C80.426 15.5935 80.9879 15.3125 81.4094 14.7506C81.8308 14.3291 82.2523 13.7672 82.3928 13.2053C82.6737 12.6433 82.8142 11.9409 82.8142 11.2385C82.8142 10.5361 82.6737 9.97419 82.3928 9.27178ZM80.9879 12.6433C80.8475 13.0648 80.5665 13.4862 80.2855 13.7672C80.0046 14.0482 79.5831 14.3291 79.1617 14.4696C78.7402 14.6101 78.3188 14.7506 77.7569 14.7506C77.3354 14.7506 76.7735 14.6101 76.352 14.4696C75.9306 14.3291 75.5091 14.0482 75.2282 13.7672C74.9472 13.4862 74.6663 13.0648 74.5258 12.6433C74.3853 12.2219 74.2448 11.8004 74.2448 11.2385C74.2448 10.6766 74.3853 10.2551 74.5258 9.83369C74.6663 9.41225 74.9472 8.9908 75.2282 8.70983C75.5091 8.42887 75.9306 8.14791 76.352 8.00742C76.7735 7.86694 77.1949 7.72646 77.7569 7.72646C78.1783 7.72646 78.7402 7.86694 79.1617 8.00742C79.5831 8.14791 80.0046 8.42887 80.2855 8.70983C80.5665 8.9908 80.8475 9.41225 80.9879 9.83369C81.1284 10.2551 81.2689 10.6766 81.2689 11.2385C81.2689 11.8004 81.2689 12.2219 80.9879 12.6433Z" fill="#1D1D1B"/>
<path d="M91.9451 16.0142V6.46143H85.0615V11.0973C85.0615 11.5188 85.0615 11.9402 85.0615 12.2212C85.0615 12.6426 84.921 13.0641 84.921 13.345C84.7805 13.626 84.64 13.907 84.4995 14.1879C84.2186 14.4689 83.9376 14.4689 83.5162 14.4689H83.0947V15.8737H83.7971C84.2186 15.8737 84.64 15.8737 84.921 15.7332C85.202 15.5927 85.4829 15.4523 85.7639 15.1713C85.9044 14.8903 86.1853 14.6094 86.3258 14.3284C86.4663 14.0474 86.6068 13.626 86.6068 13.2045C86.6068 12.7831 86.7473 12.3617 86.7473 12.0807C86.7473 11.6593 86.7473 11.2378 86.7473 10.8164V7.72576H90.5403V15.8737H91.9451V16.0142Z" fill="#1D1D1B"/>
<path d="M73.4015 32.0285V22.6162H71.8562V26.6902H66.6583V22.6162H65.113V32.0285H66.6583V27.9545H71.8562V32.0285H73.4015Z" fill="#1D1D1B"/>
<path d="M82.1117 23.8805V22.6162H75.509V32.0285H82.1117V30.7642H77.0543V27.9545H81.9712V26.6902H77.0543V23.8805H82.1117Z" fill="#1D1D1B"/>
<path d="M68.6256 12.5021L71.1543 16.0142H72.9805L69.4685 11.2378L72.9805 6.46143H71.1543L68.6256 10.1139L66.0969 6.46143H64.4111L67.7827 11.2378L64.4111 16.0142H66.0969L68.6256 12.5021Z" fill="#1D1D1B"/>
<path d="M53.4532 7.0237C53.0318 6.74274 52.7508 6.60226 52.3294 6.46178C51.9079 6.3213 51.4865 6.32129 50.9246 6.32129C50.2222 6.32129 49.5198 6.46178 48.9578 6.74274C48.3959 7.0237 47.834 7.30466 47.4125 7.72611C46.9911 8.14756 46.5696 8.70949 46.4291 9.27142C46.1482 9.83335 46.0077 10.5358 46.0077 11.2382C46.0077 11.9406 46.1482 12.643 46.4291 13.2049C46.7101 13.7668 46.9911 14.3288 47.4125 14.7502C47.834 15.1717 48.3959 15.5931 48.9578 15.7336C49.5198 16.0145 50.2222 16.155 50.9246 16.155C51.9079 16.155 52.7508 15.8741 53.4532 15.4526C54.1557 15.0312 54.7176 14.3288 55.139 13.6264H53.4532C53.1723 14.0478 52.7508 14.3288 52.3294 14.4693C51.9079 14.7502 51.346 14.7502 50.7841 14.7502C50.3626 14.7502 49.8007 14.6097 49.3793 14.4693C48.9578 14.3288 48.5364 14.0478 48.2554 13.7668C47.9744 13.4859 47.6935 13.0644 47.553 12.643C47.4125 12.2215 47.272 11.6596 47.272 11.2382C47.272 10.6762 47.4125 10.2548 47.553 9.83334C47.6935 9.41189 47.9744 8.99044 48.2554 8.70948C48.5364 8.42852 48.9578 8.14755 49.3793 8.00707C49.8007 7.86659 50.2222 7.72611 50.7841 7.72611C51.346 7.72611 51.9079 7.8666 52.3294 8.14756C52.7508 8.42852 53.1723 8.70948 53.4532 8.99044H55.139C54.9985 8.56899 54.7176 8.28803 54.4366 8.00707C54.1557 7.58562 53.8747 7.30466 53.4532 7.0237Z" fill="#1D1D1B"/>
<path d="M59.9155 11.7997L57.1058 6.46143H55.5605L59.0726 13.345L58.9321 13.7665C58.7916 14.1879 58.5107 14.4689 58.3702 14.6094C58.2297 14.7499 57.9487 14.7499 57.5273 14.7499H56.6844V16.1547H57.8083C58.0892 16.1547 58.5107 16.1547 58.6511 16.0142C58.9321 15.8737 59.0726 15.8737 59.3536 15.5928C59.494 15.4523 59.775 15.1713 59.9155 14.8904C60.056 14.6094 60.3369 14.1879 60.4774 13.7665L63.9895 6.46143H62.4442L59.9155 11.7997Z" fill="#1D1D1B"/>
<path d="M47.4125 30.9058C47.834 31.3273 48.3959 31.7487 48.9578 32.0297C49.5198 32.3107 50.2222 32.4512 50.9246 32.4512C51.627 32.4512 52.3294 32.3107 52.8913 32.0297C53.4532 31.7487 54.0152 31.4678 54.4366 30.9058C54.8581 30.4844 55.2795 29.9225 55.42 29.3605C55.701 28.7986 55.8414 28.0962 55.8414 27.3938C55.8414 26.6914 55.701 25.989 55.42 25.427C55.139 24.8651 54.8581 24.3032 54.4366 23.8817C54.0152 23.4603 53.4532 23.0388 52.8913 22.7579C52.3294 22.4769 51.627 22.3364 50.9246 22.3364C50.2222 22.3364 49.5198 22.4769 48.9578 22.7579C48.3959 23.0388 47.834 23.3198 47.4125 23.8817C46.9911 24.3032 46.5696 24.8651 46.4291 25.427C46.1482 25.989 46.0077 26.6914 46.0077 27.3938C46.0077 28.0962 46.1482 28.7986 46.4291 29.3605C46.5696 29.9225 46.9911 30.3439 47.4125 30.9058ZM47.834 25.989C47.9744 25.5675 48.2554 25.1461 48.5364 24.8651C48.8173 24.5841 49.2388 24.3032 49.6602 24.1627C50.0817 24.0222 50.5031 23.8817 51.0651 23.8817C51.4865 23.8817 52.0484 24.0222 52.4699 24.1627C52.8913 24.3032 53.3128 24.5841 53.5937 24.8651C53.8747 25.1461 54.1557 25.5675 54.2961 25.989C54.4366 26.4104 54.5771 26.8319 54.5771 27.3938C54.5771 27.9557 54.4366 28.3772 54.2961 28.7986C54.1557 29.2201 53.8747 29.6415 53.5937 29.9225C53.3128 30.2034 52.8913 30.4844 52.4699 30.6249C52.0484 30.7654 51.627 30.9058 51.0651 30.9058C50.6436 30.9058 50.0817 30.7654 49.6602 30.6249C49.2388 30.4844 48.8173 30.2034 48.5364 29.9225C48.2554 29.6415 47.9744 29.2201 47.834 28.7986C47.6935 28.3772 47.553 27.9557 47.553 27.3938C47.553 26.8319 47.553 26.4104 47.834 25.989Z" fill="#1D1D1B"/>
<path d="M63.8489 22.6162H57.3867V32.0285H58.932V23.8805H63.8489V22.6162Z" fill="#1D1D1B"/>
<path d="M119.901 28.0961C120.322 27.9557 120.603 27.6747 120.884 27.5342C121.165 27.2533 121.305 26.9723 121.446 26.6913C121.586 26.4104 121.586 25.9889 121.586 25.5675C121.586 25.146 121.586 24.865 121.446 24.4436C121.305 24.1626 121.165 23.7412 120.884 23.6007C120.603 23.3197 120.322 23.1793 119.901 23.0388C119.479 22.8983 119.058 22.7578 118.496 22.7578H113.86V32.3106H115.405V28.5176H118.496C119.058 28.2366 119.479 28.2366 119.901 28.0961ZM115.405 26.9723V24.0222H118.496C119.058 24.0222 119.479 24.1626 119.76 24.4436C120.041 24.7246 120.182 25.0055 120.182 25.5675C120.182 25.9889 120.041 26.4104 119.76 26.6913C119.479 26.9723 119.058 27.1128 118.496 27.1128H115.405V26.9723Z" fill="#1D1D1B"/>
<path d="M140.692 30.3436C140.833 30.0626 140.833 29.6412 140.833 29.2197C140.833 28.7983 140.833 28.3768 140.692 28.0958C140.552 27.8149 140.411 27.3934 140.13 27.1125C139.849 26.8315 139.569 26.691 139.147 26.4101C138.726 26.2696 138.304 26.1291 137.602 26.1291H134.933V22.4766H133.387V32.0293H137.602C138.164 32.0293 138.726 31.8889 139.147 31.7484C139.569 31.6079 139.849 31.3269 140.13 31.046C140.411 30.9055 140.552 30.6245 140.692 30.3436ZM138.866 30.3436C138.585 30.6245 138.023 30.765 137.461 30.765H134.792V27.6744H137.461C138.023 27.6744 138.445 27.8149 138.866 28.0958C139.147 28.3768 139.428 28.7983 139.428 29.2197C139.428 29.6412 139.288 30.0626 138.866 30.3436Z" fill="#1D1D1B"/>
<path d="M135.355 6.46143V16.0142H136.9L142.238 8.70913V16.0142H143.784V6.46143H142.098L136.9 13.907V6.46143H135.355Z" fill="#1D1D1B"/>
<path d="M86.4662 32.0293C86.7472 32.0293 86.8877 31.8889 87.1686 31.6079C87.3091 31.4674 87.5901 31.1865 87.7306 30.9055C87.871 30.6245 88.152 30.2031 88.2925 29.7816L91.8045 22.4766H90.2592L87.7306 27.8149L84.9209 22.4766H83.3756L86.8877 29.3602L86.7472 29.7816C86.6067 30.2031 86.3257 30.484 86.1853 30.6245C86.0448 30.765 85.7638 30.765 85.3424 30.765H84.4995V32.1698H85.6233C85.9043 32.0293 86.1852 32.0293 86.4662 32.0293Z" fill="#1D1D1B"/>
<path d="M41.9339 16.7174L33.7859 2.52868C32.9431 0.983379 31.2573 0 29.431 0H27.4643C21.0021 0 17.2091 5.33832 17.2091 10.5362C17.2091 13.9077 18.8948 16.8578 20.5806 19.6675C22.2664 22.4771 23.8117 25.1463 23.8117 28.0964C23.8117 33.2943 20.0187 37.2277 14.9613 37.2277H13.1351C11.8707 37.2277 10.6064 36.5253 9.90399 35.4015L1.75603 21.2128C1.05362 20.0889 1.05362 18.6841 1.75603 17.4198L9.90399 3.23109C10.6064 2.10724 11.8707 1.40482 13.1351 1.40482H18.7544V0H13.1351C11.3088 0 9.62302 0.983379 8.78013 2.52868L0.632169 16.7174C-0.210723 18.2627 -0.210723 20.2294 0.632169 21.7747L8.78013 35.9634C9.62302 37.5087 11.3088 38.4921 13.1351 38.4921H14.8209C20.7211 38.4921 25.0761 33.9967 25.0761 27.9559C25.0761 24.5844 23.3903 21.6342 21.7045 18.8246C20.0187 16.0149 18.6139 13.4863 18.6139 10.3957C18.6139 4.49542 23.2498 1.26434 27.4643 1.26434H29.2905C30.5549 1.26434 31.8192 1.96674 32.5216 3.0906L40.6696 17.2793C41.372 18.4032 41.372 19.808 40.6696 21.0723L32.5216 35.261C31.8192 36.3849 30.5549 37.0873 29.2905 37.0873H23.5308V38.4921H29.2905C31.1168 38.4921 32.8026 37.5087 33.6455 35.9634L41.7934 21.7747C42.7768 20.2294 42.7768 18.2627 41.9339 16.7174Z" fill="#1D1D1B"/>
<path d="M28.3072 29.7828C27.8857 30.3447 27.3238 30.7661 26.6214 30.7661V32.171C27.7453 32.171 28.8691 31.4686 29.431 30.4852L34.9098 20.9324C35.4718 19.949 35.4718 18.6847 34.9098 17.5608L29.431 8.00805C28.8691 7.02467 27.7453 6.32227 26.6214 6.32227H21.2831V7.72709H26.6214C27.3238 7.72709 28.0262 8.14853 28.3072 8.71046L33.786 18.2632C34.2074 18.8252 34.2074 19.6681 33.786 20.23L28.3072 29.7828Z" fill="#1D1D1B"/>
<path d="M13.8368 8.71046C14.2583 8.14853 14.8202 7.72709 15.5226 7.72709V6.32227C14.3988 6.32227 13.2749 7.02467 12.713 8.00805L7.23419 17.5608C6.67226 18.5442 6.67226 19.8085 7.23419 20.9324L12.713 30.4852C13.2749 31.4686 14.3988 32.171 15.5226 32.171H20.861V30.7661H15.5226C14.8202 30.7661 14.1178 30.3447 13.8368 29.7828L8.35805 20.23C7.9366 19.6681 7.9366 18.8252 8.35805 18.2632L13.8368 8.71046Z" fill="#1D1D1B"/>
</svg>
