<svg width="19" height="23" viewBox="0 0 19 23" fill="none" xmlns="http://www.w3.org/2000/svg">
<path d="M18.1504 -0.00012207H3.17499C1.42421 -0.00012207 0 1.42428 0 3.17515V19.2343C0 20.9846 1.42421 22.4093 3.17499 22.4102H18.1505C18.5446 22.4102 18.8639 22.0907 18.8639 21.6967V16.7727V5.63755V0.713315C18.8638 0.319308 18.5445 -0.00012207 18.1504 -0.00012207ZM3.17499 1.42675H17.4371V5.63755V16.0593H3.17499C2.52947 16.0593 1.92856 16.2535 1.42687 16.5858V3.17515C1.42687 2.21106 2.21108 1.42675 3.17499 1.42675ZM3.17527 20.9833C2.21108 20.9828 1.42678 20.1983 1.42678 19.2343C1.42678 18.2703 2.21099 17.4861 3.17489 17.4861H17.437V18.5209H3.17499C2.78088 18.5209 2.46155 18.8403 2.46155 19.2343C2.46155 19.6283 2.78088 19.9478 3.17499 19.9478H17.4371V20.9833H3.17527Z" fill="#8C8985"/>
<path d="M4.12042 8.86554H14.7434C15.1375 8.86554 15.4568 8.54611 15.4568 8.1521V4.64209C15.4568 4.24808 15.1375 3.92865 14.7434 3.92865H4.12042C3.72632 3.92865 3.40698 4.24808 3.40698 4.64209V8.1521C3.40698 8.54611 3.72632 8.86554 4.12042 8.86554ZM4.83386 5.35552H14.03V7.43867H4.83386V5.35552Z" fill="#8C8985"/>
</svg>
